<svg width="18" height="18" viewBox="0 0 18 18" fill="none" xmlns="http://www.w3.org/2000/svg">
<g clip-path="url(#clip0_353_10608)">
<path d="M15.3634 1.125H17.965L12.5509 6.78906C10.5903 8.83916 7.41145 8.83916 5.44938 6.78906L0.0332031 1.125H2.63687L6.75016 5.42765C7.34946 6.05174 8.15712 6.4016 8.99857 6.4016C9.84003 6.4016 10.6477 6.05174 11.247 5.42765L15.3634 1.125Z" fill="#23292F"/>
<path d="M2.60332 16.8752H0L5.44922 11.1762C7.40988 9.12615 10.5887 9.12615 12.5508 11.1762L18 16.8752H15.3984L11.25 12.5377C10.6507 11.9136 9.84304 11.5637 9.00158 11.5637C8.16013 11.5637 7.35247 11.9136 6.75316 12.5377L2.60332 16.8752Z" fill="#23292F"/>
</g>
<defs>
<clipPath id="clip0_353_10608">
<rect width="18" height="15.75" fill="white" transform="translate(0 1.125)"/>
</clipPath>
</defs>
</svg>
